<svg width="182" height="50" viewBox="0 0 182 50" fill="none" xmlns="http://www.w3.org/2000/svg">
<path d="M94.112 3.18882C87.2865 3.68533 49.9294 8.37064 43.256 12.9091C36.5066 16.9231 26.168 16.2518 24.4876 16.7762C22.8209 17.2797 21.5969 21.056 29.6395 20.056C29.6395 19.8881 6.89473 22.8811 1.61135 27.5664C-1.12716 29.9441 -1.88094 39.8881 11.9153 32.1399C25.8637 24.4965 25.8845 30.063 25.1653 33.1049C24.4737 36.2098 22.5443 41.7902 32.2121 38.8951C41.8591 36.1539 44.4178 32.6853 59.3136 40.7413C74.1264 48.9581 86.8716 50.8252 96.0483 45.2518C105.19 39.7133 112.41 35.9231 123.247 42.2588C134.055 48.6574 140.418 53.1539 145.763 47.2727C151.123 41.4476 152.319 42.9441 165.126 43.6294C177.948 44.4056 185.859 45.5175 179.884 39.7972C173.868 34.1119 162.257 33.2518 160.272 25.5734C158.64 17.5455 124.256 -1.6853 94.112 3.2098V3.18882Z" fill="url(#paint0_linear_2_2)"/>
<path style="mix-blend-mode:multiply" opacity="0.42" d="M82.0169 11.958C81.9616 11.7482 55.4064 17.5035 55.0814 22.2727C54.701 26.8181 63.9331 33.1258 71.0353 33.7482C78.1858 34.3496 79.2508 38.6363 86.4912 35.5804C93.7178 32.4755 111.636 29.6014 124.671 31.8601C137.589 33.958 157.146 31.1608 147.949 21.3216C138.675 10.3776 81.927 11.007 82.0169 11.958Z" fill="url(#paint1_linear_2_2)"/>
<g style="mix-blend-mode:multiply" opacity="0.42">
<path d="M83.2617 16.4755C81.4222 17.2308 75.3159 23.8601 78.8358 27.4685C82.342 31.1469 82.4872 33.9161 96.5877 30.9091C110.751 27.8951 126.552 30.1608 132.665 30.021C138.751 29.8322 148.419 22.2378 141.503 17.3986C134.588 12.014 93.538 11.5734 83.2617 16.4755Z" fill="#F3904F"/>
</g>
<path style="mix-blend-mode:multiply" opacity="0.42" d="M158.474 33.8671C158.474 33.8671 163.771 37.5524 164.96 35.2028C166.164 32.8252 159.359 31.3217 158.474 33.8671Z" fill="url(#paint2_linear_2_2)"/>
<path style="mix-blend-mode:multiply" opacity="0.42" d="M143.336 37.9091C143.336 37.9091 140.577 34.993 137.23 38.2518C133.903 41.5035 138.516 43.2378 141.061 41.5245C143.62 39.8042 144.484 38.7133 143.336 37.9091Z" fill="url(#paint3_linear_2_2)"/>
<path style="mix-blend-mode:multiply" opacity="0.42" d="M129.125 36.1609C129.125 36.1609 128.634 38.028 131.683 38.2448C134.733 38.4825 135.224 35.8881 129.125 36.1609Z" fill="url(#paint4_linear_2_2)"/>
<path style="mix-blend-mode:multiply" opacity="0.42" d="M132.582 40.3986C132.582 40.3986 134.318 42.3496 134.699 41.6154C135.086 40.8741 133.578 38.7203 132.582 40.3986Z" fill="url(#paint5_linear_2_2)"/>
<path style="mix-blend-mode:multiply" opacity="0.42" d="M29.6395 20.056C29.6395 19.7203 -1.14101 22.5804 0.0484374 32.3846C1.09267 41.8741 15.9677 26.2308 23.8928 28.5455C23.8928 28.5455 27.1845 29.3916 24.612 35.6923C22.074 41.9441 32.8137 38.6853 34.4388 38.1888C36.0294 37.6504 44.729 33.9231 52.0455 37.2937C59.3897 40.6294 70.0117 48.7622 82.9851 48.4266C95.9653 48.1189 103.171 39.7413 109.437 39.2238C115.654 38.7413 124.893 40.9301 132.562 47.6224C140.155 54.3217 147.859 44.5315 149.76 43.8392C151.6 43.1958 152.693 41.993 163.294 43.4965C173.874 45.035 184.849 44.6853 181.336 41.3706C177.802 38.0629 171.357 34.6923 171.35 34.6993C171.378 34.6713 179.704 41.4895 173.197 41.0909C166.71 40.6923 159.069 38.6224 152.029 37.3147C144.947 36.035 141.061 49.8462 136.967 47.7133C132.97 45.4965 117.936 31.6084 105.944 36.3916C94.0774 41.0839 88.1647 47.014 79.6034 44.3986C71.056 41.8601 63.9469 33.3497 49.7841 33.3567C35.6214 33.4685 29.19 39.4546 27.5787 37.1259C25.9259 34.8532 32.6961 28.1818 28.1735 25.8532C23.5816 23.4336 5.8159 31.2518 8.13256 28.1119C10.387 24.7762 29.6119 19.9301 29.6326 20.042L29.6395 20.056Z" fill="url(#paint6_linear_2_2)"/>
<path d="M110.702 0.538452C110.654 0.300689 81.9824 3.27272 86.3875 23.4336C86.429 23.5594 88.1232 33.0489 112.203 28.8741C136.448 24.979 148.336 27.1399 145.3 15.4825C142.319 3.85314 123.786 -1.87414 110.702 0.531459V0.538452Z" fill="url(#paint7_linear_2_2)"/>
<path style="mix-blend-mode:screen" d="M90.3016 10.6574C90.3016 10.6574 88.6004 18.8602 98.8283 20.014C123.537 23.049 138.371 20.1539 139.954 16.5804C141.483 13.1189 139.795 7.32169 139.788 7.32869C139.83 7.3147 146.22 18.3916 137.112 20.5664C127.915 22.049 82.418 28.6084 90.3016 10.6574Z" fill="url(#paint8_linear_2_2)"/>
<g style="mix-blend-mode:overlay" opacity="0.3">
<path d="M86.014 20.8741C86.0555 20.965 84.6102 5.16785 106.131 1.23778C130.819 -2.90908 140.01 8.24477 139.94 8.14687C140.037 8.18883 124.83 -0.999986 99.997 5.18183C88.303 8.16085 86.0209 20.9021 86.0209 20.8741H86.014Z" fill="white"/>
</g>
<path style="mix-blend-mode:multiply" opacity="0.44" d="M133.696 3.79719C133.73 3.79719 139.401 8.44055 128.848 15.5175C118.254 22.4895 95.8063 29.8322 88.8563 25.937C88.8701 25.937 93.5726 31.7762 101.788 30.035C110.024 28.2308 122.963 27.3147 125.805 27.021C128.634 26.6014 144.532 25.2727 145.715 19.5734C146.911 13.7622 137.167 5.14684 133.703 3.7832L133.696 3.79719Z" fill="url(#paint9_linear_2_2)"/>
<path style="mix-blend-mode:screen" opacity="0.66" d="M100.025 4.98601C100.281 4.08391 47.9031 9.60839 39.8121 16.8531C31.562 23.1888 28.3048 28.2517 36.1746 29.7762C44.0513 31.2378 60.7451 31.7343 65.8763 34.2308C71.0283 36.6434 74.327 42.3916 84.057 41.1678C84.1261 41.0699 70.3852 29.6993 71.4847 22.6503C72.6396 15.5105 85.6821 8.43356 100.018 4.97901L100.025 4.98601Z" fill="url(#paint10_linear_2_2)"/>
<path d="M92.563 16.8391C90.1633 14.5454 91.2075 10.4685 92.9433 9.7832C97.1755 8.12586 99.9901 24.0769 92.563 16.8391Z" fill="white"/>
<path style="mix-blend-mode:screen" d="M90.6474 9.28667C86.104 12.7412 87.577 19.4265 93.0678 20.8951C97.7495 22.1538 104.686 23.0209 114.817 22.4895C125.743 21.944 132.693 19.951 137.057 17.7762C141.828 15.4265 142.119 8.77618 137.389 5.90206C133.143 3.34262 126.144 1.0629 115.017 1.73423C102.521 2.52444 95.0456 5.97199 90.6474 9.27968V9.28667Z" fill="url(#paint11_linear_2_2)"/>
<defs>
<linearGradient id="paint0_linear_2_2" x1="90.4929" y1="48.7365" x2="92.4552" y2="1.84838" gradientUnits="userSpaceOnUse">
<stop stop-color="#F5E2D3"/>
<stop offset="0.27" stop-color="#F7F0E1"/>
<stop offset="0.61" stop-color="#F9FBEC"/>
<stop offset="1" stop-color="#FAFFF0"/>
</linearGradient>
<linearGradient id="paint1_linear_2_2" x1="55.0651" y1="22.6313" x2="150.316" y2="26.5298" gradientUnits="userSpaceOnUse">
<stop stop-color="white"/>
<stop offset="0.26" stop-color="#FCE4D5"/>
<stop offset="0.84" stop-color="#F5A36D"/>
<stop offset="1" stop-color="#F3904F"/>
</linearGradient>
<linearGradient id="paint2_linear_2_2" x1="138.032" y1="17.2009" x2="181.632" y2="47.1824" gradientUnits="userSpaceOnUse">
<stop stop-color="white"/>
<stop offset="0.26" stop-color="#FCE4D5"/>
<stop offset="0.84" stop-color="#F5A36D"/>
<stop offset="1" stop-color="#F3904F"/>
</linearGradient>
<linearGradient id="paint3_linear_2_2" x1="127.35" y1="30.7938" x2="170.746" y2="60.636" gradientUnits="userSpaceOnUse">
<stop stop-color="white"/>
<stop offset="0.26" stop-color="#FCE4D5"/>
<stop offset="0.84" stop-color="#F5A36D"/>
<stop offset="1" stop-color="#F3904F"/>
</linearGradient>
<linearGradient id="paint4_linear_2_2" x1="126.123" y1="33.3671" x2="167.961" y2="62.139" gradientUnits="userSpaceOnUse">
<stop stop-color="white"/>
<stop offset="0.26" stop-color="#FCE4D5"/>
<stop offset="0.84" stop-color="#F5A36D"/>
<stop offset="1" stop-color="#F3904F"/>
</linearGradient>
<linearGradient id="paint5_linear_2_2" x1="125.268" y1="34.6541" x2="165.913" y2="62.605" gradientUnits="userSpaceOnUse">
<stop stop-color="white"/>
<stop offset="0.26" stop-color="#FCE4D5"/>
<stop offset="0.84" stop-color="#F5A36D"/>
<stop offset="1" stop-color="#F3904F"/>
</linearGradient>
<linearGradient id="paint6_linear_2_2" x1="0.0136135" y1="31.9106" x2="182.148" y2="39.3651" gradientUnits="userSpaceOnUse">
<stop stop-color="white"/>
<stop offset="0.26" stop-color="#FCE4D5"/>
<stop offset="0.84" stop-color="#F5A36D"/>
<stop offset="1" stop-color="#F3904F"/>
</linearGradient>
<linearGradient id="paint7_linear_2_2" x1="115.385" y1="30.566" x2="116.666" y2="-0.04993" gradientUnits="userSpaceOnUse">
<stop offset="0.1" stop-color="#FF4F00"/>
<stop offset="0.2" stop-color="#FF7100"/>
<stop offset="0.34" stop-color="#FF9700"/>
<stop offset="0.47" stop-color="#FFB400"/>
<stop offset="0.61" stop-color="#FFCA00"/>
<stop offset="0.74" stop-color="#FFD600"/>
<stop offset="0.86" stop-color="#FFDB00"/>
</linearGradient>
<linearGradient id="paint8_linear_2_2" x1="115.36" y1="23.244" x2="116.067" y2="6.33609" gradientUnits="userSpaceOnUse">
<stop stop-color="#FFDB00"/>
<stop offset="0.03" stop-color="#F0CE00"/>
<stop offset="0.15" stop-color="#B19800"/>
<stop offset="0.27" stop-color="#7B6900"/>
<stop offset="0.38" stop-color="#4F4300"/>
<stop offset="0.49" stop-color="#2C2600"/>
<stop offset="0.59" stop-color="#141100"/>
<stop offset="0.69" stop-color="#050400"/>
<stop offset="0.77"/>
</linearGradient>
<linearGradient id="paint9_linear_2_2" x1="130.434" y1="33.5685" x2="118.005" y2="21.1545" gradientUnits="userSpaceOnUse">
<stop stop-color="#FF4F00"/>
<stop offset="0.09" stop-color="#FF560A"/>
<stop offset="0.24" stop-color="#FF6A27"/>
<stop offset="0.43" stop-color="#FF8A56"/>
<stop offset="0.67" stop-color="#FFB797"/>
<stop offset="0.93" stop-color="#FFEFE9"/>
<stop offset="1" stop-color="white"/>
</linearGradient>
<linearGradient id="paint10_linear_2_2" x1="31.7008" y1="15.1374" x2="73.544" y2="20.7392" gradientUnits="userSpaceOnUse">
<stop stop-color="#E1E9FC"/>
<stop offset="0.09" stop-color="#DBE2F5"/>
<stop offset="0.22" stop-color="#CAD1E2"/>
<stop offset="0.37" stop-color="#AFB5C4"/>
<stop offset="0.54" stop-color="#888D99"/>
<stop offset="0.72" stop-color="#575B62"/>
<stop offset="0.91" stop-color="#1D1E20"/>
<stop offset="1"/>
</linearGradient>
<linearGradient id="paint11_linear_2_2" x1="114.709" y1="2.35855" x2="114.173" y2="18.4893" gradientUnits="userSpaceOnUse">
<stop stop-color="#FFDB00"/>
<stop offset="0.03" stop-color="#F0CE00"/>
<stop offset="0.19" stop-color="#B19800"/>
<stop offset="0.35" stop-color="#7B6900"/>
<stop offset="0.5" stop-color="#4F4300"/>
<stop offset="0.64" stop-color="#2C2600"/>
<stop offset="0.77" stop-color="#141100"/>
<stop offset="0.9" stop-color="#050400"/>
<stop offset="1"/>
</linearGradient>
</defs>
</svg>
