<svg width="152" height="52" viewBox="0 0 152 52" fill="none" xmlns="http://www.w3.org/2000/svg">
<path d="M4.43321 31.2125C1.69772 33.1148 0.215694 35.9978 0.436892 38.7259C0.72445 42.3314 0.245187 42.936 4.52168 47.5517C6.29864 49.4024 14.1143 55.3747 28.2267 49.4245C42.3023 43.489 70.2839 33.2623 103.795 34.7443C137.019 36.6024 152.238 41.3434 151.036 27.7102C150.984 21.7969 120.488 10.5526 86.9032 11.2015C53.3254 10.56 16.6507 21.8042 4.44058 31.2052L4.43321 31.2125Z" fill="url(#paint0_linear_2_38)"/>
<path d="M6.57143 26.3757C-10.0995 37.4946 10.9143 52.5065 31.1834 43.6881C52.4037 35.1941 65.2111 31.5665 101.583 30.313C138.184 30.4678 152.179 35.1351 151.257 24.9231C150.527 20.4623 140.33 8.25217 114.988 2.75171C90.3465 -2.55705 50.553 -1.15613 6.57143 26.3757Z" fill="url(#paint1_linear_2_38)"/>
<path style="mix-blend-mode:overlay" d="M10.6635 24.3332C-4.55491 34.1028 14.2322 48.1268 32.7907 40.2005C52.1308 32.5471 63.729 29.3471 96.6948 27.5996C129.86 26.995 142.601 30.5194 141.48 21.4798C140.713 17.4761 131.15 7.06505 108.345 2.64846C86.0847 -1.59855 50.5972 0.156293 10.6635 24.3332Z" fill="url(#paint2_linear_2_38)"/>
<g style="mix-blend-mode:overlay" opacity="0.4">
<path d="M17.705 20.2632C16.835 20.0199 63.8396 -5.66857 103.869 1.1517C103.943 1.10746 89.8377 0.47336 76.5658 2.59686C63.2571 4.47705 50.7963 9.11483 53.2073 13.9886C55.9649 18.8402 100.765 16.031 100.89 17.1222C100.971 17.0853 86.0553 16.289 71.8027 18.5084C57.5059 20.4402 43.8728 25.4024 45.5465 30.1729C48.5917 39.7065 65.5576 33.2475 65.6755 33.3876C65.4322 32.8125 32.7318 42.5452 29.9815 44.1674C26.8553 45.03 46.4018 40.1047 37.3253 33.395C27.9391 26.6411 15.6479 33.4024 15.7511 33.4171C15.3972 32.7757 50.7889 19.5333 47.0875 14.0254C42.752 7.62543 17.447 19.983 17.6977 20.2632H17.705Z" fill="white"/>
</g>
<path style="mix-blend-mode:overlay" d="M7.3087 26.7959C-5.21849 34.995 10.4423 46.5342 25.8746 39.478C41.8598 32.5987 51.3935 29.6863 78.6377 26.442C106.059 23.9794 116.713 25.5867 115.202 18.4347C114.332 15.1978 105.793 7.69918 87.0138 5.46507C68.6027 3.3342 39.9428 6.46784 7.30132 26.7959H7.3087Z" fill="url(#paint3_linear_2_38)"/>
<g style="mix-blend-mode:overlay" opacity="0.8">
<path d="M25.9115 41.0853C25.3216 41.2107 22.8884 43.1056 24.5032 43.6291C26.1105 44.16 27.5336 44.0715 28.0276 43.1351C28.5216 42.2061 29.893 40.2522 25.9115 41.078V41.0853Z" fill="white"/>
</g>
<g style="mix-blend-mode:overlay" opacity="0.8">
<path d="M34.5899 38.689C33.2258 38.9029 26.4277 38.8734 30.1438 40.1711C33.8525 41.4761 37.1263 41.4245 38.3429 39.2936C39.5668 37.1849 43.8286 37.148 34.5825 38.689H34.5899Z" fill="white"/>
</g>
<path d="M6.57141 26.3757C4.38155 27.9093 2.47187 29.8116 1.55021 31.9499C1.10044 33.0116 0.930855 34.1029 0.967722 35.1425C1.00459 36.1969 1.37325 37.1701 1.83777 38.0771C2.30966 38.9913 3.02486 39.7803 3.76956 40.525C4.18247 40.8715 4.5585 41.2402 5.01565 41.5425C5.23685 41.6973 5.4433 41.8669 5.67187 42.0218C5.90781 42.1692 6.13638 42.3093 6.37233 42.4568C8.25251 43.607 10.4424 44.3665 12.706 44.89C17.2626 45.9075 22.2101 45.6863 26.9216 44.4771C27.5115 44.3222 28.094 44.1305 28.6838 43.9609C29.2737 43.7913 29.8341 43.548 30.4166 43.3489C31.5742 42.9287 32.7613 42.442 33.941 42.007C36.3004 41.1148 38.682 40.2595 41.0709 39.4337C50.6267 36.0789 60.6322 33.8374 70.7852 32.4586C75.858 31.7582 80.9751 31.2642 86.1143 30.9176C91.2534 30.5637 96.4073 30.3572 101.583 30.3056C91.2313 30.4605 80.9456 31.2052 70.8295 32.7314C60.7133 34.2356 50.7742 36.5877 41.3143 40.0457C38.9474 40.9084 36.6249 41.8522 34.3391 42.8771C33.1889 43.3858 32.0829 43.9241 30.9106 44.4328C30.3207 44.6761 29.7382 44.9637 29.1336 45.1775C28.529 45.384 27.9244 45.6199 27.305 45.819C24.8424 46.6079 22.2617 47.0798 19.6811 47.1609C17.1004 47.2641 14.5419 46.9692 12.1087 46.3867C9.68293 45.7969 7.37509 44.89 5.39168 43.5923C4.38155 42.9655 3.48938 42.2135 2.67832 41.395C1.91887 40.5397 1.20367 39.6476 0.746523 38.6079C0.304127 37.5683 -0.02767 36.4623 0.00182312 35.29C0.0239429 34.125 0.296754 32.9231 0.893989 31.8024C2.10321 29.5536 4.21933 27.7102 6.57141 26.3757Z" fill="#FFE3DC"/>
<g style="mix-blend-mode:overlay" opacity="0.5">
<path d="M7.34557 44.6835C7.34557 44.6835 16.4368 50.5452 10.5234 50.877C10.5234 50.877 15.4857 53.0964 23.6258 51.0245C23.6258 51.0245 10.9364 49.9111 20.9198 47.1683C20.9198 47.1683 11.9981 47.9793 7.3382 44.6835H7.34557Z" fill="white"/>
</g>
<defs>
<linearGradient id="paint0_linear_2_38" x1="132.544" y1="16.7535" x2="-4.46633" y2="50.7222" gradientUnits="userSpaceOnUse">
<stop offset="0.18" stop-color="#9C1925"/>
<stop offset="0.57" stop-color="#D5545D"/>
<stop offset="1" stop-color="#FBADAD"/>
</linearGradient>
<linearGradient id="paint1_linear_2_38" x1="45.0894" y1="22.8291" x2="129.808" y2="26.6485" gradientUnits="userSpaceOnUse">
<stop offset="0.11" stop-color="#FFC1B3"/>
<stop offset="0.58" stop-color="#FBADAD"/>
</linearGradient>
<linearGradient id="paint2_linear_2_38" x1="45.3843" y1="21.207" x2="122.029" y2="24.6577" gradientUnits="userSpaceOnUse">
<stop offset="0.11" stop-color="#FF7E60"/>
<stop offset="1" stop-color="#FA6668"/>
</linearGradient>
<linearGradient id="paint3_linear_2_38" x1="35.9981" y1="22.7775" x2="99.0986" y2="25.6162" gradientUnits="userSpaceOnUse">
<stop offset="0.11" stop-color="#FF7E60"/>
<stop offset="1" stop-color="#FA6668"/>
</linearGradient>
</defs>
</svg>
