<svg width="152" height="47" viewBox="0 0 152 47" fill="none" xmlns="http://www.w3.org/2000/svg">
<path d="M60.2234 11.2874C60.2234 11.2874 65.5814 6.57957 83.3055 10.6516C83.3055 10.6516 87.5133 7.34398 83.3055 4.80073C79.0977 2.25749 63.031 2.38608 60.2234 3.90774C57.4158 5.43654 57.673 9.50859 60.2234 11.2874Z" fill="url(#paint0_linear_2_145)"/>
<path d="M45.1354 8.487C45.1354 13.9093 48.7288 18.6885 53.9511 20.1602C58.1088 21.3318 64.1955 22.2319 73.0968 22.2319C98.8579 22.2319 97.8363 9.12281 97.8363 9.12281C97.8363 9.12281 78.069 14.8523 68.7605 13.7021C59.4519 12.559 45.1283 8.487 45.1283 8.487H45.1354Z" fill="url(#paint1_linear_2_145)"/>
<path d="M71.4894 0C56.9372 0 45.1426 3.80058 45.1426 8.487C45.1426 13.1734 56.9372 16.974 71.4894 16.974C86.0416 16.974 97.8434 13.1734 97.8434 8.487C97.8434 3.80058 86.0488 0 71.4894 0ZM71.4894 12.4805C64.6313 12.4805 59.0804 10.6945 59.0804 8.487C59.0804 6.27953 64.6384 4.49354 71.4894 4.49354C78.3405 4.49354 83.9056 6.27953 83.9056 8.487C83.9056 10.6945 78.3476 12.4805 71.4894 12.4805Z" fill="url(#paint2_linear_2_145)"/>
<path d="M113.639 24.418C113.639 24.418 118.997 19.7101 136.721 23.7822C136.721 23.7822 140.929 20.4745 136.721 17.9313C132.513 15.388 116.446 15.5166 113.639 17.0383C110.831 18.5671 111.088 22.6391 113.639 24.418Z" fill="url(#paint3_linear_2_145)"/>
<path d="M98.5507 21.6176C98.5507 27.0398 102.144 31.8191 107.366 33.2908C111.524 34.4624 117.611 35.3625 126.512 35.3625C152.273 35.3625 151.252 22.2534 151.252 22.2534C151.252 22.2534 131.484 27.9828 122.176 26.8326C112.867 25.6896 98.5435 21.6176 98.5435 21.6176H98.5507Z" fill="url(#paint4_linear_2_145)"/>
<path d="M124.905 13.1377C110.353 13.1377 98.5579 16.9383 98.5579 21.6247C98.5579 26.3111 110.353 30.1117 124.905 30.1117C139.457 30.1117 151.259 26.3111 151.259 21.6247C151.259 16.9383 139.464 13.1377 124.905 13.1377ZM124.905 25.6182C118.047 25.6182 112.496 23.8322 112.496 21.6247C112.496 19.4172 118.054 17.6312 124.905 17.6312C131.756 17.6312 137.321 19.4172 137.321 21.6247C137.321 23.8322 131.763 25.6182 124.905 25.6182Z" fill="url(#paint5_linear_2_145)"/>
<path d="M73.6683 39.7203C73.6683 39.7203 77.2332 36.5841 89.0278 39.2988C89.0278 39.2988 91.8282 37.0985 89.0278 35.4054C86.2274 33.7123 75.54 33.798 73.6683 34.8125C71.8038 35.8269 71.9681 38.5416 73.6683 39.7203Z" fill="url(#paint6_linear_2_145)"/>
<path d="M63.624 37.8557C63.624 41.4634 66.0172 44.6425 69.4891 45.6212C72.2538 46.3999 76.3045 47 82.2268 47C99.3651 47 98.6864 38.2772 98.6864 38.2772C98.6864 38.2772 85.5344 42.085 79.3406 41.3277C73.1468 40.5633 63.6168 37.8557 63.6168 37.8557H63.624Z" fill="url(#paint7_linear_2_145)"/>
<path d="M81.1623 32.212C71.4823 32.212 63.6311 34.741 63.6311 37.8558C63.6311 40.9705 71.4823 43.4995 81.1623 43.4995C90.8424 43.4995 98.7007 40.9705 98.7007 37.8558C98.7007 34.741 90.8495 32.212 81.1623 32.212ZM81.1623 40.5204C76.6045 40.5204 72.9039 39.3345 72.9039 37.8629C72.9039 36.3912 76.5974 35.2053 81.1623 35.2053C85.7273 35.2053 89.4207 36.3912 89.4207 37.8629C89.4207 39.3345 85.7202 40.5204 81.1623 40.5204Z" fill="url(#paint8_linear_2_145)"/>
<path d="M15.0951 28.6615C15.0951 28.6615 20.4531 23.9537 38.1772 28.0257C38.1772 28.0257 42.385 24.7181 38.1772 22.1748C33.9694 19.6316 17.9027 19.7602 15.0951 21.2818C12.2875 22.8106 12.5447 26.8827 15.0951 28.6615Z" fill="url(#paint9_linear_2_145)"/>
<path d="M0.00714394 25.8611C0.00714394 31.2833 3.60055 36.0626 8.82277 37.5343C12.9805 38.7059 19.0672 39.606 27.9685 39.606C53.7296 39.606 52.708 26.4969 52.708 26.4969C52.708 26.4969 32.9407 32.2263 23.6322 31.0762C14.3236 29.9331 0 25.8611 0 25.8611H0.00714394Z" fill="url(#paint10_linear_2_145)"/>
<path d="M26.3541 17.3812C11.8019 17.3812 0.00720215 21.1818 0.00720215 25.8611C0.00720215 30.5404 11.8019 34.3481 26.3541 34.3481C40.9063 34.3481 52.7081 30.5475 52.7081 25.8611C52.7081 21.1747 40.9134 17.3741 26.3541 17.3741V17.3812ZM26.3541 29.8617C19.4959 29.8617 13.945 28.0757 13.945 25.8682C13.945 23.6608 19.503 21.8748 26.3541 21.8748C33.2051 21.8748 38.7702 23.6608 38.7702 25.8682C38.7702 28.0757 33.2122 29.8617 26.3541 29.8617Z" fill="url(#paint11_linear_2_145)"/>
<path style="mix-blend-mode:screen" opacity="0.2" d="M16.1382 18.5028C16.1382 18.5028 -2.82185 21.0461 1.70741 28.6615C5.23652 34.5981 32.012 35.9555 46.0427 30.5261C46.0427 30.5261 -8.25839 34.0266 16.1382 18.5028Z" fill="url(#paint12_linear_2_145)"/>
<defs>
<linearGradient id="paint0_linear_2_145" x1="58.216" y1="7.04393" x2="85.1772" y2="7.04393" gradientUnits="userSpaceOnUse">
<stop offset="0.31" stop-color="#4D1F4D"/>
<stop offset="0.63" stop-color="#612253"/>
</linearGradient>
<linearGradient id="paint1_linear_2_145" x1="45.1354" y1="15.3595" x2="97.8506" y2="15.3595" gradientUnits="userSpaceOnUse">
<stop offset="0.31" stop-color="#4D1F4D"/>
<stop offset="0.63" stop-color="#612253"/>
</linearGradient>
<linearGradient id="paint2_linear_2_145" x1="45.1354" y1="8.487" x2="97.8434" y2="8.487" gradientUnits="userSpaceOnUse">
<stop offset="0.39" stop-color="#7B6080"/>
<stop offset="1" stop-color="#785394"/>
</linearGradient>
<linearGradient id="paint3_linear_2_145" x1="111.631" y1="20.1816" x2="138.592" y2="20.1816" gradientUnits="userSpaceOnUse">
<stop offset="0.31" stop-color="#4D1F4D"/>
<stop offset="0.63" stop-color="#612253"/>
</linearGradient>
<linearGradient id="paint4_linear_2_145" x1="98.5507" y1="28.49" x2="151.266" y2="28.49" gradientUnits="userSpaceOnUse">
<stop offset="0.31" stop-color="#4D1F4D"/>
<stop offset="0.63" stop-color="#612253"/>
</linearGradient>
<linearGradient id="paint5_linear_2_145" x1="98.5507" y1="21.6176" x2="151.259" y2="21.6176" gradientUnits="userSpaceOnUse">
<stop offset="0.39" stop-color="#7B6080"/>
<stop offset="1" stop-color="#785394"/>
</linearGradient>
<linearGradient id="paint6_linear_2_145" x1="72.3324" y1="36.8985" x2="90.2709" y2="36.8985" gradientUnits="userSpaceOnUse">
<stop offset="0.31" stop-color="#4D1F4D"/>
<stop offset="0.63" stop-color="#612253"/>
</linearGradient>
<linearGradient id="paint7_linear_2_145" x1="63.624" y1="42.435" x2="98.7007" y2="42.435" gradientUnits="userSpaceOnUse">
<stop offset="0.31" stop-color="#4D1F4D"/>
<stop offset="0.63" stop-color="#612253"/>
</linearGradient>
<linearGradient id="paint8_linear_2_145" x1="63.624" y1="37.8558" x2="98.6936" y2="37.8558" gradientUnits="userSpaceOnUse">
<stop offset="0.39" stop-color="#7B6080"/>
<stop offset="1" stop-color="#785394"/>
</linearGradient>
<linearGradient id="paint9_linear_2_145" x1="13.0877" y1="24.4252" x2="40.0489" y2="24.4252" gradientUnits="userSpaceOnUse">
<stop offset="0.31" stop-color="#4D1F4D"/>
<stop offset="0.63" stop-color="#612253"/>
</linearGradient>
<linearGradient id="paint10_linear_2_145" x1="0.00714394" y1="32.7336" x2="52.7152" y2="32.7336" gradientUnits="userSpaceOnUse">
<stop offset="0.31" stop-color="#4D1F4D"/>
<stop offset="0.63" stop-color="#612253"/>
</linearGradient>
<linearGradient id="paint11_linear_2_145" x1="0.00720215" y1="25.8611" x2="52.7152" y2="25.8611" gradientUnits="userSpaceOnUse">
<stop offset="0.39" stop-color="#7B6080"/>
<stop offset="1" stop-color="#785394"/>
</linearGradient>
<linearGradient id="paint12_linear_2_145" x1="26.5326" y1="25.6753" x2="-0.592936" y2="33.2408" gradientUnits="userSpaceOnUse">
<stop offset="0.26" stop-color="#FBECC0"/>
<stop offset="1" stop-color="#FEEACE"/>
</linearGradient>
</defs>
</svg>
