<svg width="166" height="55" viewBox="0 0 166 55" fill="none" xmlns="http://www.w3.org/2000/svg">
<g clip-path="url(#clip0_2_193)">
<path d="M165.388 31.0253C163.74 26.1274 163.654 22.8283 162.344 18.9833C161.033 15.1383 161.01 12.4943 150.95 7.29227C140.883 2.0902 27.3293 -6.55912 8.13678 8.9769C8.13678 8.9769 0.305994 17.0101 0.00782758 23.4366C-0.141255 26.6655 1.8596 29.0677 4.26846 31.2436C4.05661 32.5071 3.98599 33.6224 4.37831 33.716C5.2885 33.9266 6.4027 33.9266 6.52825 35.2368C6.65379 36.5471 5.54744 39.2222 12.2876 39.1598C15.7635 42.3341 21.9073 42.9892 27.494 44.4633C28.2944 44.6739 29.2595 44.9 30.3423 45.1418C30.6954 45.446 31.0642 45.7268 31.433 45.9529C33.269 47.0994 35.7093 46.2259 36.6509 46.3975C37.5924 46.5691 43.9089 49.6654 44.6543 49.5562C45.2035 49.4782 49.9506 49.3066 52.5007 49.1506C53.9523 49.3924 55.2078 49.603 56.1572 49.7745C61.4614 50.7027 64.9296 53.5338 74.1021 52.3483C75.7106 53.3934 77.9704 54.5321 78.9904 54.0797C80.6931 53.3232 83.0941 52.3171 85.1891 52.4419C87.292 52.5667 90.6738 54.7037 92.8316 53.2062C93.1062 53.019 93.3809 52.8162 93.6477 52.6135C97.7592 53.1594 101.706 53.5884 105.472 52.941C114.292 51.428 125.92 51.2954 133.735 50.2659C135.94 49.9773 137.611 49.8057 139.079 49.6264C140.46 49.9617 142.06 50.0709 143.347 49.3846C144.077 49.0024 144.579 48.6437 144.964 48.3317C145.952 47.9807 147.051 47.5284 148.345 46.9434C149.405 47.1774 150.519 47.349 152.606 45.173C152.818 44.9546 153.022 44.7285 153.226 44.5101C160.555 40.5403 166.871 35.4786 165.38 31.0331L165.388 31.0253Z" fill="url(#paint0_linear_2_193)"/>
<g style="mix-blend-mode:multiply" opacity="0.4">
<path d="M66.083 40.8444C65.7927 40.5871 61.3202 39.4562 60.9828 40.5637C60.6376 41.6712 59.4684 43.4416 61.8459 43.9797C64.2234 44.5179 67.8171 42.3887 66.0909 40.8522L66.083 40.8444Z" fill="#92278F"/>
</g>
<g style="mix-blend-mode:multiply" opacity="0.4">
<path d="M140.303 35.6892C140.012 35.4318 135.54 34.3009 135.203 35.4084C134.857 36.5159 133.688 38.2863 136.066 38.8245C138.443 39.3626 142.037 37.2334 140.311 35.6892H140.303Z" fill="#92278F"/>
</g>
<g style="mix-blend-mode:multiply" opacity="0.4">
<path d="M135.375 33.8252C135.203 33.599 131.938 32.2419 131.468 33.0608C130.997 33.8797 129.757 35.1276 131.507 35.7984C133.249 36.4691 136.434 35.2056 135.383 33.8252H135.375Z" fill="#92278F"/>
</g>
<g style="mix-blend-mode:multiply" opacity="0.4">
<path d="M143.842 32.2575C143.661 32.0235 140.444 30.5495 140.02 31.3372C139.597 32.1249 138.459 33.3026 140.177 34.0357C141.896 34.7689 144.924 33.6614 143.842 32.2575Z" fill="#92278F"/>
</g>
<g style="mix-blend-mode:multiply" opacity="0.4">
<path d="M59.4448 39.6044C59.4762 39.3158 58.0325 36.1181 57.1144 36.3989C56.2043 36.6797 54.4388 36.7499 55.2548 38.4189C56.063 40.0879 59.2644 41.328 59.4448 39.6044Z" fill="#92278F"/>
</g>
<path d="M162.83 38.3019L162.249 37.7794C162.563 37.3972 162.822 37.1398 162.979 36.9916L163.544 37.5298C163.324 37.7872 163.081 38.0445 162.83 38.3019Z" fill="url(#paint1_linear_2_193)"/>
<path d="M164.509 36.3287L163.858 35.8997C165.121 33.8641 164.949 31.2436 164.643 30.0191L165.396 29.8086L165.466 30.0425C165.561 30.3233 165.647 30.6197 165.749 30.9083C166.314 32.5773 165.89 34.4023 164.501 36.3365L164.509 36.3287Z" fill="url(#paint2_linear_2_193)"/>
<g style="mix-blend-mode:screen" opacity="0.5">
<path d="M5.81421 11.6442C5.81421 11.6442 10.0827 18.2346 10.4986 20.1844C10.9144 22.1342 15.3634 17.6184 18.7374 18.063C22.1192 18.5075 25.4775 25.5736 29.895 25.2538C34.3126 24.9341 39.7031 23.2026 44.0658 26.8605C48.4284 30.5183 57.2792 33.4118 59.4841 32.1015C61.6889 30.7835 65.7142 33.2636 68.7272 34.5193C71.7403 35.775 79.1866 32.9595 81.5013 31.2982C83.816 29.637 92.9885 33.6068 95.6171 34.3477C98.2457 35.0886 99.3128 31.2358 101.816 30.6587C104.319 30.0893 107.693 34.5037 114.402 32.3121C121.11 30.1205 121.887 33.4664 125.442 32.3433C129.004 31.228 131.366 29.2314 135.218 29.9646C139.071 30.6977 139.345 31.2202 142.555 29.9178C145.764 28.6153 150.605 29.247 154.089 27.3674C157.573 25.4878 162.555 19.5838 161.998 17.9616C161.441 16.3393 156.961 8.07998 150.943 7.30006C144.924 6.52014 117.391 -0.0311905 102.208 1.19328C87.0252 2.41776 56.3926 -1.70022 44.1835 0.873518C31.9744 3.43166 9.80806 3.14309 5.81421 11.6442Z" fill="#81360F"/>
</g>
<g style="mix-blend-mode:multiply" opacity="0.2">
<path d="M164.195 36.1025C163.936 36.4691 163.638 36.8435 163.309 37.21C163.293 37.2256 163.269 37.249 163.254 37.2646C163.065 37.444 162.822 37.6936 162.555 38.0211H162.548C160.249 40.3063 156.875 42.5447 153.249 44.5023C153.038 44.7285 152.841 44.9468 152.622 45.1652C150.542 47.3412 149.42 47.1696 148.369 46.9356C147.074 47.5284 145.976 47.9807 144.987 48.3317C144.611 48.6515 144.1 49.0024 143.371 49.3846C142.084 50.0631 140.483 49.9539 139.094 49.6186C137.635 49.8057 135.964 49.9695 133.759 50.2581C125.944 51.2954 114.315 51.428 105.496 52.941C101.722 53.5883 97.7749 53.1594 93.6712 52.6134C93.4044 52.8162 93.122 53.019 92.8473 53.2062C90.6896 54.7036 87.3156 52.5667 85.2127 52.4419C83.1099 52.3093 80.7167 53.3154 79.014 54.0719C77.9783 54.5243 75.7263 53.3856 74.1178 52.3405C64.9453 53.526 61.4771 50.6948 56.1729 49.7667C55.2235 49.5952 53.9759 49.3846 52.5165 49.1428C49.9585 49.2988 45.2192 49.4704 44.6621 49.5484C43.9167 49.6576 37.6003 46.5613 36.6587 46.3897C35.725 46.2181 33.2847 47.0838 31.4487 45.9373C31.0877 45.719 30.7111 45.4382 30.3659 45.134C29.283 44.8922 28.3179 44.6739 27.5176 44.4555C24.7242 43.7146 21.7897 43.1842 19.1297 42.4355C16.4619 41.6946 14.053 40.7353 12.3111 39.152C5.571 39.2144 6.67735 36.5393 6.55181 35.229C6.42626 33.9188 5.31207 33.911 4.40187 33.7082C4.0017 33.6146 4.08017 32.5071 4.29202 31.2358C1.85177 29.0676 -0.141235 26.6655 0.0156947 23.4444C0.180471 19.7164 2.89535 15.4424 5.13944 12.5177C5.64162 12.5801 5.94763 12.8843 5.99471 13.4458C5.99471 13.4458 6.48119 20.2389 6.99121 23.6004C7.49338 26.9775 11.2675 30.2453 13.6529 28.5841C16.046 26.9229 24.7242 24.7547 30.0598 31.4074C35.3719 38.0601 33.5751 40.9926 39.7581 39.5108C45.9411 38.0289 50.2567 34.9638 54.5644 40.0645C58.8721 45.1652 59.2409 46.4521 61.893 46.4131C64.5529 46.3741 66.2792 44.7519 68.1937 46.1791C70.1161 47.5986 71.1048 49.7121 75.3889 48.0899C79.6731 46.4599 81.109 43.9875 90.36 45.4772C99.6345 46.9512 107.418 50.3985 112.636 46.9668C117.862 43.543 120.977 39.0194 130.102 40.1971C139.22 41.3592 141.739 43.3168 143.787 39.1442C145.819 34.9872 145.254 29.2548 151.17 28.3735C156.129 27.6404 161.386 22.6957 162.956 21.1203C163.654 23.8422 163.976 26.4861 165.011 29.9022C165.011 29.91 165.011 29.9178 165.011 29.9178C165.341 31.2436 165.49 33.9733 164.18 36.0947L164.195 36.1025Z" fill="#8E204A"/>
</g>
<g style="mix-blend-mode:multiply" opacity="0.2">
<path d="M164.195 36.1025C163.96 36.4925 163.67 36.8669 163.309 37.21C163.638 36.8435 163.936 36.4691 164.195 36.1025Z" fill="#8E204A"/>
</g>
<g style="mix-blend-mode:multiply" opacity="0.2">
<path d="M165.027 29.91C163.991 26.4861 163.67 23.85 162.971 21.1281C163.269 20.8239 163.442 20.6445 163.442 20.6445C163.442 20.6445 164.517 28.2721 164.956 29.6526C164.98 29.7384 165.011 29.8242 165.027 29.9178V29.91Z" fill="#8E204A"/>
</g>
<g style="mix-blend-mode:multiply" opacity="0.4">
<path d="M7.69737 9.43705C7.3992 9.67883 7.18735 21.6038 12.9859 20.5977C18.7844 19.5994 34.5794 17.2129 37.6709 18.219C40.7624 19.2251 66.4675 31.8598 79.1238 27.1023C91.7802 22.3447 100.05 10.9579 112.401 11.8626C124.751 12.7673 130.557 21.0267 138.694 15.497C146.831 9.9674 148.989 6.9725 148.989 6.9725C148.989 6.9725 99.1794 -0.25736 87.6608 0.491364C76.1343 1.25569 21.3424 -1.45844 7.69737 9.43705Z" fill="#92278F"/>
</g>
<path style="mix-blend-mode:screen" opacity="0.4" d="M25.352 21.3932C25.352 21.3932 29.181 25.3786 31.9038 25.0433C34.6265 24.7079 39.0911 24.3881 44.9289 27.5312C50.7667 30.6743 54.0936 32.7255 59.4841 32.0938C64.8668 31.462 70.885 35.9622 73.7569 34.7689C76.6287 33.5756 81.5092 29.676 87.3626 31.6024C93.2161 33.521 95.3268 34.9171 98.1986 33.5366C101.07 32.1561 106.343 32.5773 108.988 33.4586C111.632 34.3321 113.939 31.5556 117.148 31.6414C120.357 31.7272 123.088 34.0592 130.173 30.4715C137.258 26.8917 139.777 31.2202 143.355 29.6292C146.933 28.046 154.254 28.5529 155.988 26.065C157.722 23.577 160.782 16.2224 157.369 14.3506C157.369 14.3506 147.843 25.1993 140.805 24.1152C133.759 23.0311 130.377 23.6862 126.422 25.285C122.468 26.8839 113.578 26.9697 110.298 25.3006C107.018 23.6316 100.521 29.8866 96.9275 29.5746C93.9458 29.3094 85.7541 25.285 77.5702 28.3891C74.1492 29.6916 70.3593 29.8398 66.8284 28.8493C63.9802 28.046 60.4492 27.617 57.1459 28.7635C49.9428 31.2514 44.3797 22.6333 36.9804 22.9141C29.5812 23.1871 25.3441 21.3932 25.3441 21.3932H25.352Z" fill="url(#paint3_linear_2_193)"/>
<path d="M32.7904 24.9263C32.7904 24.9263 42.9594 24.8171 47.3299 29.5512C51.6926 34.2853 59.4841 32.0937 59.4841 32.0937C59.4841 32.0937 41.1783 21.752 32.7904 24.9263Z" fill="white"/>
<path d="M65.6985 33.131C65.6985 33.131 71.0106 35.8608 73.7569 34.7689C76.5031 33.677 81.5013 31.2826 81.5013 31.2826C81.5013 31.2826 73.4822 34.5973 65.9967 33.0764C58.5112 31.5556 65.6985 33.1232 65.6985 33.1232V33.131Z" fill="white"/>
<g style="mix-blend-mode:color-dodge" opacity="0.2">
<path d="M37.4041 1.95762C37.4041 1.95762 -1.67915 6.19259 1.29467 18.7181C4.26848 31.2436 8.42711 31.1267 11.1655 26.7123C13.904 22.298 11.55 46.5535 15.3712 52.2625C19.1925 57.9715 22.0957 53.8457 20.597 48.1445C19.0983 42.4433 15.9676 28.1864 19.114 27.0399C22.2604 25.9012 27.29 28.6543 62.301 30.4169C97.312 32.1717 113.899 28.3267 121.856 20.5899C129.812 12.8531 92.6747 -2.92468 37.4041 1.95762Z" fill="#FBB040"/>
</g>
<g style="mix-blend-mode:color-dodge" opacity="0.2">
<path d="M3.14642 16.8775C3.14642 16.8775 3.81337 29.8164 7.33644 27.0945C10.8595 24.3725 5.979 24.5519 3.14642 16.8775Z" fill="white"/>
</g>
<g style="mix-blend-mode:color-dodge" opacity="0.2">
<path d="M13.9196 32.9517C13.9196 32.9517 14.5081 54.0173 17.223 53.019C19.9379 52.0207 13.9196 32.9517 13.9196 32.9517Z" fill="white"/>
</g>
</g>
<defs>
<linearGradient id="paint0_linear_2_193" x1="84.169" y1="54.1982" x2="81.3192" y2="-1.07484" gradientUnits="userSpaceOnUse">
<stop stop-color="#551D0D"/>
<stop offset="0.53" stop-color="#732914"/>
<stop offset="1" stop-color="#B45D32"/>
</linearGradient>
<linearGradient id="paint1_linear_2_193" x1="162.929" y1="38.3043" x2="162.865" y2="37.0019" gradientUnits="userSpaceOnUse">
<stop stop-color="#551D0D"/>
<stop offset="0.53" stop-color="#732914"/>
<stop offset="1" stop-color="#B45D32"/>
</linearGradient>
<linearGradient id="paint2_linear_2_193" x1="165.043" y1="36.3127" x2="164.713" y2="29.8487" gradientUnits="userSpaceOnUse">
<stop stop-color="#551D0D"/>
<stop offset="0.53" stop-color="#732914"/>
<stop offset="1" stop-color="#B45D32"/>
</linearGradient>
<linearGradient id="paint3_linear_2_193" x1="34.2697" y1="47.0928" x2="165.512" y2="-7.32691" gradientUnits="userSpaceOnUse">
<stop offset="0.02" stop-color="#FFFFBC"/>
<stop offset="0.98"/>
</linearGradient>
<clipPath id="clip0_2_193">
<rect width="166" height="55" fill="white"/>
</clipPath>
</defs>
</svg>
