<svg width="1425" height="329" viewBox="0 0 1425 329" fill="none" xmlns="http://www.w3.org/2000/svg">
<path d="M772.573 296.573C756.726 292.879 734.135 290.575 709.027 290.575C683.92 290.575 661.328 292.879 645.482 296.573H622.273V309.343C622.273 319.696 661.122 328.111 709.027 328.111C756.932 328.111 792.787 320.335 795.599 310.529H795.782V296.573H772.573Z" fill="#A49C9A"/>
<path d="M709.027 329C665.947 329 621.381 321.657 621.381 309.343V296.573C621.381 296.094 621.77 295.683 622.273 295.683H645.39C661.808 291.875 685.018 289.686 709.05 289.686C733.083 289.686 756.269 291.875 772.71 295.683H795.828C796.308 295.683 796.72 296.071 796.72 296.573V310.506C796.72 310.803 796.56 311.076 796.331 311.236C792.352 321.384 755.194 328.977 709.073 328.977L709.027 329ZM623.142 297.462V309.343C623.142 317.986 657.647 327.221 709.027 327.221C747.923 327.221 791.758 320.745 794.753 310.278C794.776 310.164 794.845 310.073 794.913 309.982V297.462H772.573C772.573 297.462 772.436 297.462 772.367 297.439C756.063 293.654 732.968 291.465 709.027 291.465C685.086 291.465 661.991 293.631 645.688 297.439C645.619 297.439 645.551 297.462 645.482 297.462H623.142Z" fill="#5E2E1C"/>
<g style="mix-blend-mode:multiply">
<path d="M633.5 296.573H622.273V309.343C622.273 312.695 626.366 315.842 633.5 318.579V296.573Z" fill="#B6B8BA"/>
</g>
<g style="mix-blend-mode:multiply">
<path d="M772.573 296.573C761.826 294.064 747.946 292.194 732.282 291.259V327.426C767.222 325.328 793.267 318.624 795.599 310.529H795.782V296.573H772.573Z" fill="#B6B8BA"/>
</g>
<g style="mix-blend-mode:multiply">
<path d="M774.745 296.573V321.589C786.727 318.579 794.387 314.748 795.599 310.529H795.782V296.573H774.745Z" fill="#898C8E"/>
</g>
<path d="M709.027 315.341C756.941 315.341 795.782 306.938 795.782 296.573C795.782 286.208 756.941 277.805 709.027 277.805C661.114 277.805 622.273 286.208 622.273 296.573C622.273 306.938 661.114 315.341 709.027 315.341Z" fill="#75706F"/>
<path d="M709.027 316.23C665.947 316.23 621.381 308.887 621.381 296.573C621.381 284.259 665.947 276.916 709.027 276.916C752.107 276.916 796.674 284.259 796.674 296.573C796.674 308.887 752.107 316.23 709.027 316.23ZM709.027 278.694C657.647 278.694 623.142 287.93 623.142 296.573C623.142 305.216 657.647 314.451 709.027 314.451C760.408 314.451 794.913 305.216 794.913 296.573C794.913 287.93 760.408 278.694 709.027 278.694Z" fill="#5E2E1C"/>
<g style="mix-blend-mode:screen">
<path d="M685.772 295.478C676.58 297.781 667.342 299.993 658.15 302.296C654.697 303.163 651.244 304.03 647.791 304.919C651.793 306.15 656.641 307.245 662.174 308.18C667.319 305.033 672.51 301.954 677.861 299.218C680.445 297.895 683.097 296.641 685.772 295.501V295.478Z" fill="#ECE0CA"/>
</g>
<g style="mix-blend-mode:multiply">
<path d="M758.213 293.654C758.213 299.537 736.193 304.303 709.027 304.303C681.862 304.303 659.842 299.537 659.842 293.654C659.842 287.77 681.862 283.004 709.027 283.004C736.193 283.004 758.213 287.77 758.213 293.654Z" fill="#B6B8BA"/>
</g>
<g style="mix-blend-mode:multiply">
<path d="M709.027 299.514C730.105 299.514 747.191 295.819 747.191 291.259C747.191 286.7 730.105 283.004 709.027 283.004C687.95 283.004 670.864 286.7 670.864 291.259C670.864 295.819 687.95 299.514 709.027 299.514Z" fill="#B6B8BA"/>
</g>
<path d="M709.027 35.216L681.451 32.9128V288.956C681.451 288.956 686.527 295.934 709.027 295.82C731.528 295.957 736.604 288.956 736.604 288.956V32.9128L709.027 35.216Z" fill="#A49C9A"/>
<path d="M709.645 296.938H708.387C686.275 296.938 680.993 290.005 680.787 289.709C680.65 289.503 680.559 289.253 680.559 288.979V32.9129C680.559 32.6164 680.65 32.32 680.833 32.1148C681.016 31.9095 681.245 31.7955 681.496 31.8183L709.004 34.1215L736.513 31.8183C736.764 31.7955 736.993 31.9095 737.176 32.1148C737.359 32.32 737.45 32.6164 737.45 32.9129V288.956C737.45 289.23 737.359 289.503 737.221 289.686C737.016 289.982 731.711 296.915 709.622 296.915L709.645 296.938ZM709.027 294.726C728.166 294.771 734.5 289.686 735.712 288.477V34.0987L709.096 36.3335C709.096 36.3335 709.027 36.3335 708.982 36.3335L682.365 34.0987V288.477C683.554 289.663 689.728 294.726 708.433 294.726C708.639 294.726 708.844 294.726 709.05 294.726H709.027Z" fill="#5E2E1C"/>
<g style="mix-blend-mode:multiply">
<path d="M715.819 34.6459V295.615C732.557 294.497 736.581 288.956 736.581 288.956V32.9128L715.819 34.6459Z" fill="#B6B8BA"/>
</g>
<g style="mix-blend-mode:multiply">
<path d="M687.99 33.4601L681.451 32.9128V288.956C681.451 288.956 682.96 291.031 687.99 292.901V33.4601Z" fill="#B6B8BA"/>
</g>
<g style="mix-blend-mode:screen">
<path d="M703.677 34.7829L695.834 34.1216V294.908C698.097 295.273 700.704 295.569 703.677 295.706V34.7829Z" fill="#A49C9A"/>
</g>
<g style="mix-blend-mode:multiply">
<path d="M724.851 33.8934V294.406C734.112 292.4 736.604 288.956 736.604 288.956V32.9128L724.851 33.8934Z" fill="#B6B8BA"/>
</g>
<path d="M1422.37 37.6651V20.2167H1284.24C1272.59 19.7134 1265.13 19.5037 1265.13 19.5037H159.247C159.247 19.5037 150.432 19.7553 137.021 20.3845H1.6246L1.31351 38.5669C1.31351 38.5669 1.48634 38.5669 1.7283 38.5669C1.832 39.4268 3.11095 40.2656 5.73799 41.1045C22.2952 46.2845 1402.01 46.2845 1418.57 41.1045C1422.13 39.993 1423.16 38.8396 1422.3 37.6861L1422.37 37.6651Z" fill="#A49C9A"/>
<path d="M1422.37 27.5989V29.0669C1422.75 28.5845 1422.75 28.1022 1422.37 27.5989Z" fill="#A49C9A"/>
<g style="mix-blend-mode:multiply">
<path d="M5.77258 31.0171C22.3298 36.1972 1402.04 36.1972 1418.6 31.0171C1420.64 30.367 1421.85 29.7169 1422.33 29.0668V20.2377H1284.21C1272.56 19.7344 1265.09 19.5247 1265.09 19.5247H159.247C159.247 19.5247 150.433 19.7763 137.021 20.4055H1.62462L1.48636 28.5005C1.55549 28.5005 1.62462 28.5005 1.72832 28.5005C1.83202 29.3604 3.11097 30.1992 5.73801 31.0381L5.77258 31.0171Z" fill="#B6B8BA"/>
</g>
<path d="M712.204 45.7812C454.305 45.7812 15.2092 44.9424 5.18494 41.8176C2.73074 41.0416 1.24439 40.2028 0.65676 39.28C0.553061 39.2381 0.483928 39.2171 0.414796 39.1542C0.138265 39.0074 0 38.7767 0 38.567L0.311097 20.4055C0.311097 19.9651 0.898724 19.6086 1.65918 19.6086H137.055C150.225 18.9584 159.143 18.7068 159.212 18.7068H1265.13C1265.13 18.7068 1272.8 18.9165 1284.35 19.4408H1422.37C1422.71 19.4408 1423.06 19.5037 1423.3 19.6505C1423.54 19.7973 1423.68 20.007 1423.68 20.2167V37.4974C1424.41 38.6509 1424.13 40.2657 1419.22 41.7966C1409.2 44.9214 970.068 45.7603 712.204 45.7603V45.7812ZM2.69617 37.9588C2.93813 38.0846 3.0764 38.2734 3.11097 38.4831C3.1801 39.0493 4.35535 39.7204 6.39476 40.3496C26.1667 45.4038 1398.24 45.4038 1418.01 40.3496C1421.95 39.1122 1421.33 38.2734 1421.12 38.0007C1421.05 37.8959 1420.99 37.7701 1420.99 37.6652V21.0346H1284.21C1272.59 20.5313 1265.13 20.3216 1265.02 20.3216H159.247C159.247 20.3216 150.363 20.5733 137.124 21.2024H2.9727L2.69617 37.9588Z" fill="#5E2E1C"/>
<path d="M1343.35 5.49456C1304.26 1.9084 1265.13 0.817871 1265.13 0.817871H159.247C159.247 0.817871 120.152 1.88743 81.0234 5.49456C41.9289 9.08072 -13.7574 16.274 5.77256 22.3768C22.3298 27.5568 1402.04 27.5568 1418.6 22.3768C1438.17 16.274 1382.44 9.08072 1343.35 5.47359V5.49456Z" fill="#ECE0CA"/>
<g style="mix-blend-mode:screen">
<path d="M218.321 23.8867C245.49 18.2034 272.728 12.604 300.001 7.04646C310.232 4.97027 320.464 2.89407 330.696 0.817871H296.268C260.734 6.2076 225.234 11.6812 189.838 17.3855C174.802 19.7973 159.765 22.2719 144.764 24.7885C165.4 24.9353 187.972 25.0821 212.099 25.2079C214.173 24.7675 216.247 24.3271 218.286 23.9077L218.321 23.8867Z" fill="#ECE0CA"/>
</g>
<g style="mix-blend-mode:screen">
<path d="M1235.36 12.9814C1251.2 9.16458 1266.99 5.30579 1282.82 1.46797C1272.01 0.98562 1265.16 0.796875 1265.16 0.796875H722.885C707.261 4.32012 691.602 7.84336 675.978 11.4086C654.478 16.295 632.978 21.2443 611.547 26.2146C813.933 26.3614 1027.59 26.0678 1184.21 25.3338C1201.28 21.2233 1218.32 17.1129 1235.4 12.9814H1235.36Z" fill="#ECE0CA"/>
</g>
<path d="M712.204 27.0745C454.305 27.0745 15.2092 26.2356 5.18493 23.1108C1.65917 22.0203 0.0691222 20.741 0.449351 19.3359C2.28136 12.604 57.2763 6.85774 80.8505 4.67669C119.565 1.13247 158.798 0 159.212 0H1265.13C1265.58 0 1304.81 1.1115 1343.56 4.67669C1367.13 6.83677 1422.13 12.604 1423.96 19.3149C1424.34 20.72 1422.75 21.9993 1419.26 23.0898C1409.23 26.2146 970.103 27.0535 712.238 27.0535L712.204 27.0745ZM1265.06 1.61482H159.247C158.901 1.61482 119.807 2.72632 81.2308 6.27054C36.2255 10.4229 4.11338 15.8965 3.11096 19.5876C2.86899 20.4264 5.08123 21.2443 6.39475 21.6638C26.1667 26.7179 1398.24 26.7179 1418.01 21.6638C1419.33 21.2443 1421.5 20.4264 1421.3 19.6085C1420.29 15.9175 1388.15 10.4439 1343.14 6.31248C1304.53 2.76826 1265.44 1.65676 1265.06 1.65676V1.61482Z" fill="#5E2E1C"/>
</svg>
