<svg width="199" height="66" viewBox="0 0 199 66" fill="none" xmlns="http://www.w3.org/2000/svg">
<g clip-path="url(#clip0_2_236)">
<path d="M196.804 14.0824C196.804 14.0824 158.414 -1.06547 96.3384 0.0578803C34.2745 1.18124 -1.57212 13.0054 0.0577988 26.4278C0.913216 33.4574 2.52001 36.5495 2.52001 36.5495C2.52001 36.5495 -2.64717 52.8903 4.26552 55.0328C11.1782 57.1637 11.5712 49.914 9.71014 42.7801C7.84903 35.6462 14.4034 30.4811 15.2241 33.7933C16.0448 37.1054 20.2988 37.4644 20.7959 37.5571C21.2929 37.6497 20.4953 52.2881 30.3095 38.0782C30.3095 38.0782 36.02 39.2016 34.5057 43.8919C32.9913 48.5822 28.4022 63.6374 36.1818 63.8112C43.9499 63.9849 45.2331 63.5564 42.1351 55.855C39.0371 48.1537 41.0369 39.2247 45.0712 43.4634C49.1056 47.702 60.7693 54.8591 64.5146 50.5509C68.2599 46.2428 72.6989 47.7368 86.1312 49.9719C99.5636 52.207 109.563 39.2132 118.117 38.9236C126.671 38.6341 130.994 42.1316 128.948 47.5399C126.891 52.9482 129.33 68.1424 134.162 62.3867C138.994 56.631 139.722 57.1637 136.266 51.4543C132.809 45.7448 138.45 39.0279 140.751 42.9191C143.051 46.8103 141.363 59.2714 142.173 62.8268C142.982 66.3821 156.403 68.8721 154.16 59.4683C151.917 50.053 147.328 42.0273 147.328 42.0273C147.328 42.0273 163.35 47.4241 169.257 40.4639C175.164 33.5037 186.065 26.9489 189.325 31.5813C192.584 36.2137 186.307 45.5364 189.244 46.764C192.191 47.9916 202.584 41.5294 197.74 33.7354C192.896 25.9414 201.497 20.1393 196.804 14.1056V14.0824Z" fill="url(#paint0_linear_2_236)"/>
<path style="mix-blend-mode:multiply" opacity="0.2" d="M139.838 38.5299C141.167 39.827 141.583 43.0812 141.791 46.7177C141.595 45.1311 141.282 43.7877 140.751 42.8959C138.45 39.0047 132.809 45.7217 136.266 51.4311C139.19 56.2835 139.121 56.6194 136.069 60.14C134.613 54.0832 132.116 50.7015 132.775 48.5359C133.491 46.2081 136.543 35.3451 139.826 38.5299H139.838Z" fill="url(#paint1_linear_2_236)"/>
<g style="mix-blend-mode:multiply" opacity="0.2">
<path d="M34.5057 43.8687C36.02 39.1784 30.3095 38.0551 30.3095 38.0551C20.4953 52.2649 21.2929 37.6266 20.7959 37.5339C20.2988 37.4413 16.0448 37.0823 15.2241 33.7701C14.4034 30.458 7.83746 35.6231 9.71013 42.757C11.5828 49.8908 11.1782 57.1405 4.26551 55.0096C-1.37561 53.2609 1.01724 42.0853 2.09229 38.0088C2.19633 43.0117 2.76275 50.2151 5.10937 48.559C8.63508 46.0575 5.32901 38.4604 6.60057 34.0365C7.87214 29.6125 14.6692 23.6136 17.8944 28.1418C21.0964 32.6699 35.257 31.5697 35.257 31.5697C35.257 31.5697 38.5631 43.7298 32.448 51.489C33.0723 48.3853 33.9739 45.4901 34.5057 43.8456V43.8687Z" fill="url(#paint2_linear_2_236)"/>
<path d="M42.135 55.8319C45.233 63.5332 43.9499 63.9617 36.1818 63.788C33.7196 63.7301 32.5058 62.1899 32.0319 59.9547C33.708 61.4023 36.1356 61.6108 36.6326 60.3369C37.6383 57.6964 35.1761 45.9417 38.9792 41.4136C40.3202 39.8154 41.8229 40.6608 43.5222 42.398C40.586 41.6452 39.4647 49.196 42.135 55.8319Z" fill="url(#paint3_linear_2_236)"/>
<path d="M128.948 47.5284C131.006 42.12 126.671 38.6226 118.117 38.9121C109.563 39.2016 99.5635 52.1955 86.1312 49.9604C72.6988 47.7252 68.2599 46.2197 64.5146 50.5394C63.1621 52.0913 60.7924 52.1492 58.1221 51.408C62.9078 50.0183 64.5839 45.6175 68.1212 43.9846C72.3058 42.039 84.0042 42.2822 89.7609 42.6296C95.5292 42.977 98.8815 40.5682 106.384 38.0435C118.799 33.8628 135.826 29.5778 128.96 47.5399L128.948 47.5284Z" fill="url(#paint4_linear_2_236)"/>
<path d="M154.16 59.4451C156.403 68.8605 142.982 66.3706 142.173 62.8036C141.745 60.9159 142.011 56.5152 142.022 52.207C142.184 55.6582 142.485 58.704 143.56 59.8968C146.299 62.9542 150.449 62.9426 151.062 57.1869C151.663 51.4311 141.41 40.9387 144.057 39.0742C145.571 38.0088 147.328 40.2786 149.444 42.6064C148.241 42.2937 147.455 42.0389 147.34 42.0042C147.478 42.2474 151.94 50.1688 154.16 59.4336V59.4451Z" fill="url(#paint5_linear_2_236)"/>
<path d="M192.353 46.3702C191.105 46.8798 189.949 47.0419 189.244 46.7408C186.296 45.5133 192.584 36.1906 189.325 31.5582C186.065 26.9374 175.164 33.4806 169.257 40.4408C167.396 42.6296 164.529 43.5908 161.466 43.8919C166.691 40.2555 172.471 34.0597 172.76 32.6236C173.187 30.4696 193.081 24.459 192.469 34.1639C192.076 40.4755 191.544 44.7721 192.365 46.3818L192.353 46.3702Z" fill="url(#paint6_linear_2_236)"/>
</g>
<g style="mix-blend-mode:screen" opacity="0.9">
<path d="M34.0317 52.1723C34.6675 50.7362 37.6152 57.1173 36.2165 59.6536C33.6618 64.2976 32.3093 56.0519 34.0317 52.1723Z" fill="white"/>
</g>
<g style="mix-blend-mode:screen" opacity="0.9">
<path d="M3.97651 40.2902C4.60073 38.912 6.32312 45.7448 4.99376 48.1537C2.56622 52.566 2.27723 44.0308 3.97651 40.2902Z" fill="white"/>
</g>
<g style="mix-blend-mode:screen" opacity="0.9">
<path d="M34.9565 47.0071C35.6848 46.3354 38.1817 48.9527 36.6211 50.1687C33.7774 52.3923 32.9914 48.8485 34.9565 47.0071Z" fill="white"/>
</g>
<g style="mix-blend-mode:overlay" opacity="0.5">
<path d="M27.9051 25.9066C27.8935 26.4278 17.9638 31.0138 25.1077 31.9519C32.2747 32.9942 34.1589 31.4192 35.5229 32.0561C36.8407 32.2877 49.857 42.4211 54.423 46.0691C58.9313 49.5318 62.746 38.2404 73.4156 39.19C84.0967 40.1396 85.0793 50.412 95.6564 45.2237C106.199 39.7459 111.782 28.3502 131.457 30.0179C131.376 30.2726 110.638 26.9952 101.98 36.4569C93.0439 46.5323 73.878 34.2797 69.335 36.1095C64.584 38.3793 56.5385 45.8259 52.3538 42.2705C48.123 38.5646 35.1993 29.4851 32.4943 30.4811C29.7431 31.0949 21.3623 31.8824 27.9051 25.9182V25.9066Z" fill="white"/>
</g>
</g>
<defs>
<linearGradient id="paint0_linear_2_236" x1="107.196" y1="6.92536" x2="93.3622" y2="51.2265" gradientUnits="userSpaceOnUse">
<stop offset="0.26" stop-color="#F26522"/>
<stop offset="1" stop-color="#ED1C24"/>
</linearGradient>
<linearGradient id="paint1_linear_2_236" x1="146.148" y1="19.1034" x2="132.329" y2="63.3474" gradientUnits="userSpaceOnUse">
<stop offset="0.41" stop-color="#BE1E2D"/>
<stop offset="0.55" stop-color="#CF5659"/>
<stop offset="0.77" stop-color="#E8A597"/>
<stop offset="0.92" stop-color="#F8D6BE"/>
<stop offset="1" stop-color="#FEEACE"/>
</linearGradient>
<linearGradient id="paint2_linear_2_236" x1="36.4372" y1="-15.1256" x2="22.6053" y2="29.1408" gradientUnits="userSpaceOnUse">
<stop offset="0.41" stop-color="#BE1E2D"/>
<stop offset="0.55" stop-color="#CF5659"/>
<stop offset="0.77" stop-color="#E8A597"/>
<stop offset="0.92" stop-color="#F8D6BE"/>
<stop offset="1" stop-color="#FEEACE"/>
</linearGradient>
<linearGradient id="paint3_linear_2_236" x1="53.8322" y1="44.7815" x2="33.4525" y2="56.3686" gradientUnits="userSpaceOnUse">
<stop offset="0.41" stop-color="#BE1E2D"/>
<stop offset="0.55" stop-color="#CF5659"/>
<stop offset="0.77" stop-color="#E8A597"/>
<stop offset="0.92" stop-color="#F8D6BE"/>
<stop offset="1" stop-color="#FEEACE"/>
</linearGradient>
<linearGradient id="paint4_linear_2_236" x1="107.083" y1="6.02614" x2="93.0522" y2="50.9542" gradientUnits="userSpaceOnUse">
<stop offset="0.41" stop-color="#BE1E2D"/>
<stop offset="0.55" stop-color="#CF5659"/>
<stop offset="0.77" stop-color="#E8A597"/>
<stop offset="0.92" stop-color="#F8D6BE"/>
<stop offset="1" stop-color="#FEEACE"/>
</linearGradient>
<linearGradient id="paint5_linear_2_236" x1="157.804" y1="22.7459" x2="143.985" y2="66.9899" gradientUnits="userSpaceOnUse">
<stop offset="0.41" stop-color="#BE1E2D"/>
<stop offset="0.55" stop-color="#CF5659"/>
<stop offset="0.77" stop-color="#E8A597"/>
<stop offset="0.92" stop-color="#F8D6BE"/>
<stop offset="1" stop-color="#FEEACE"/>
</linearGradient>
<linearGradient id="paint6_linear_2_236" x1="181.573" y1="30.1372" x2="167.74" y2="74.4152" gradientUnits="userSpaceOnUse">
<stop offset="0.41" stop-color="#BE1E2D"/>
<stop offset="0.55" stop-color="#CF5659"/>
<stop offset="0.77" stop-color="#E8A597"/>
<stop offset="0.92" stop-color="#F8D6BE"/>
<stop offset="1" stop-color="#FEEACE"/>
</linearGradient>
<clipPath id="clip0_2_236">
<rect width="199" height="66" fill="white"/>
</clipPath>
</defs>
</svg>
